<svg xmlns="http://www.w3.org/2000/svg" width="96" height="96" viewBox="0 0 96 96" role="img" aria-labelledby="title desc">
  <title id="title">Excel Dashboard mark</title>
  <desc id="desc">A spreadsheet dashboard symbol with chart bars.</desc>
  <rect width="96" height="96" rx="18" fill="#2563eb"/>
  <path d="M24 25h48a6 6 0 0 1 6 6v34a6 6 0 0 1-6 6H24a6 6 0 0 1-6-6V31a6 6 0 0 1 6-6Z" fill="#ffffff" opacity=".94"/>
  <path d="M18 38h60M34 25v46M50 25v46M66 25v46" stroke="#dbeafe" stroke-width="4"/>
  <path d="M28 61V50M44 61V43M60 61V35" stroke="#12b981" stroke-width="7" stroke-linecap="round"/>
</svg>
